<svg xmlns="http://www.w3.org/2000/svg" xmlns:xlink="http://www.w3.org/1999/xlink" version="1.1" x="0px" y="0px" viewBox="0 0 32 32" enable-background="new 0 0 32 32" xml:space="preserve"><g display="none"><rect x="-153.333" y="-102.625" display="inline"  width="473.333" height="236"></rect></g><g display="none"><g display="inline"><g><ellipse transform="matrix(0.7071 -0.7071 0.7071 0.7071 -10.2523 6.9145)"  cx="3.22" cy="15.833" rx="3.22" ry="3.22"></ellipse><ellipse transform="matrix(0.7071 -0.7071 0.7071 0.7071 -3.9461 9.5266)" cx="9.527" cy="9.527" rx="3.22" ry="3.22"></ellipse><ellipse transform="matrix(0.7071 -0.7071 0.7071 0.7071 2.3602 12.1388)"  cx="15.833" cy="3.22" rx="3.22" ry="3.22"></ellipse></g><g><ellipse transform="matrix(0.7071 -0.7071 0.7071 0.7071 -12.9336 13.3879)" cx="9.694" cy="22.306" rx="3.22" ry="3.22"></ellipse><ellipse transform="matrix(0.7071 -0.7071 0.7071 0.7071 -6.6274 16)"  cx="16" cy="16" rx="3.22" ry="3.22"></ellipse><ellipse transform="matrix(0.7071 -0.7071 0.7071 0.7071 -0.3212 18.6121)" cx="22.306" cy="9.694" rx="3.22" ry="3.22"></ellipse></g><g><ellipse transform="matrix(0.7071 -0.7071 0.7071 0.7071 -15.615 19.8612)"  cx="16.167" cy="28.78" rx="3.22" ry="3.22"></ellipse><ellipse transform="matrix(0.7071 -0.7071 0.7071 0.7071 -9.3088 22.4734)" cx="22.473" cy="22.473" rx="3.22" ry="3.22"></ellipse><ellipse transform="matrix(0.7071 -0.7071 0.7071 0.7071 -3.0025 25.0855)"  cx="28.78" cy="16.167" rx="3.22" ry="3.22"></ellipse></g></g></g><g><ellipse transform="matrix(0.7071 -0.7071 0.7071 0.7071 -10.2523 6.9146)" cx="3.22" cy="15.833" rx="3.22" ry="3.22"></ellipse><ellipse transform="matrix(0.7071 -0.7071 0.7071 0.7071 -3.946 9.5266)" cx="9.527" cy="9.527" rx="3.22" ry="3.22"></ellipse><ellipse transform="matrix(0.7071 -0.7071 0.7071 0.7071 2.3601 12.1387)" cx="15.833" cy="3.22" rx="3.22" ry="3.22"></ellipse><ellipse transform="matrix(0.7071 -0.7071 0.7071 0.7071 -12.9336 13.3879)" cx="9.694" cy="22.306" rx="3.22" ry="3.22"></ellipse><ellipse transform="matrix(0.7071 -0.7071 0.7071 0.7071 -6.6274 16)" cx="16" cy="16" rx="3.22" ry="3.22"></ellipse><ellipse transform="matrix(0.7071 -0.7071 0.7071 0.7071 -0.3211 18.6123)" cx="22.306" cy="9.694" rx="3.22" ry="3.22"></ellipse><ellipse transform="matrix(0.7071 -0.7071 0.7071 0.7071 -15.6149 19.861)" cx="16.167" cy="28.78" rx="3.22" ry="3.22"></ellipse><ellipse transform="matrix(0.7071 -0.7071 0.7071 0.7071 -9.3088 22.4734)" cx="22.473" cy="22.473" rx="3.22" ry="3.22"></ellipse><ellipse transform="matrix(0.7071 -0.7071 0.7071 0.7071 -3.0025 25.0855)" cx="28.78" cy="16.167" rx="3.22" ry="3.22"></ellipse></g><g display="none"><g display="inline"><path  d="M4.469,1c1.744,0,3.164,1.419,3.164,3.164S6.214,7.327,4.469,7.327S1.306,5.908,1.306,4.164    S2.725,1,4.469,1 M4.469,0c-2.3,0-4.164,1.864-4.164,4.164c0,2.3,1.864,4.164,4.164,4.164c2.3,0,4.164-1.864,4.164-4.164    C8.633,1.864,6.769,0,4.469,0L4.469,0z"></path></g><g display="inline"><path  d="M16,1c1.744,0,3.164,1.419,3.164,3.164S17.744,7.327,16,7.327s-3.164-1.419-3.164-3.164S14.256,1,16,1     M16,0c-2.3,0-4.164,1.864-4.164,4.164c0,2.3,1.864,4.164,4.164,4.164s4.164-1.864,4.164-4.164C20.164,1.864,18.3,0,16,0L16,0z"></path></g><g display="inline"><path  d="M27.531,1c1.744,0,3.164,1.419,3.164,3.164s-1.419,3.164-3.164,3.164s-3.164-1.419-3.164-3.164    S25.786,1,27.531,1 M27.531,0c-2.3,0-4.164,1.864-4.164,4.164c0,2.3,1.864,4.164,4.164,4.164c2.3,0,4.164-1.864,4.164-4.164    C31.694,1.864,29.83,0,27.531,0L27.531,0z"></path></g><g display="inline"><path  d="M4.469,12.836c1.744,0,3.164,1.419,3.164,3.164s-1.419,3.164-3.164,3.164S1.306,17.744,1.306,16    S2.725,12.836,4.469,12.836 M4.469,11.836c-2.3,0-4.164,1.864-4.164,4.164c0,2.3,1.864,4.164,4.164,4.164    c2.3,0,4.164-1.864,4.164-4.164C8.633,13.7,6.769,11.836,4.469,11.836L4.469,11.836z"></path></g><g display="inline"><path  d="M16,12.836c1.744,0,3.164,1.419,3.164,3.164S17.744,19.164,16,19.164S12.836,17.744,12.836,16    S14.256,12.836,16,12.836 M16,11.836c-2.3,0-4.164,1.864-4.164,4.164c0,2.3,1.864,4.164,4.164,4.164S20.164,18.3,20.164,16    C20.164,13.7,18.3,11.836,16,11.836L16,11.836z"></path></g><g display="inline"><path  d="M27.531,12.836c1.744,0,3.164,1.419,3.164,3.164s-1.419,3.164-3.164,3.164S24.367,17.744,24.367,16    S25.786,12.836,27.531,12.836 M27.531,11.836c-2.3,0-4.164,1.864-4.164,4.164c0,2.3,1.864,4.164,4.164,4.164    c2.3,0,4.164-1.864,4.164-4.164C31.694,13.7,29.83,11.836,27.531,11.836L27.531,11.836z"></path></g><g display="inline"><path  d="M4.469,24.673c1.744,0,3.164,1.419,3.164,3.164S6.214,31,4.469,31s-3.164-1.419-3.164-3.164    S2.725,24.673,4.469,24.673 M4.469,23.673c-2.3,0-4.164,1.864-4.164,4.164c0,2.3,1.864,4.164,4.164,4.164    c2.3,0,4.164-1.864,4.164-4.164C8.633,25.537,6.769,23.673,4.469,23.673L4.469,23.673z"></path></g><g display="inline"><path  d="M16,24.673c1.744,0,3.164,1.419,3.164,3.164S17.744,31,16,31s-3.164-1.419-3.164-3.164    S14.256,24.673,16,24.673 M16,23.673c-2.3,0-4.164,1.864-4.164,4.164C11.836,30.136,13.7,32,16,32s4.164-1.864,4.164-4.164    C20.164,25.537,18.3,23.673,16,23.673L16,23.673z"></path></g><g display="inline"><path  d="M27.531,24.673c1.744,0,3.164,1.419,3.164,3.164S29.275,31,27.531,31s-3.164-1.419-3.164-3.164    S25.786,24.673,27.531,24.673 M27.531,23.673c-2.3,0-4.164,1.864-4.164,4.164c0,2.3,1.864,4.164,4.164,4.164    c2.3,0,4.164-1.864,4.164-4.164C31.694,25.537,29.83,23.673,27.531,23.673L27.531,23.673z"></path></g></g><g display="none"><g display="inline"><circle  cx="16" cy="16" r="16"></circle></g><g display="inline"><circle  cx="4.469" cy="4.164" r="3.664"></circle><g><path  d="M4.469,1c1.744,0,3.164,1.419,3.164,3.164S6.214,7.327,4.469,7.327S1.306,5.908,1.306,4.164     S2.725,1,4.469,1 M4.469,0c-2.3,0-4.164,1.864-4.164,4.164c0,2.3,1.864,4.164,4.164,4.164c2.3,0,4.164-1.864,4.164-4.164     C8.633,1.864,6.769,0,4.469,0L4.469,0z"></path></g></g><g display="inline"><circle  cx="16" cy="4.164" r="3.664"></circle><path  d="M16,1c1.744,0,3.164,1.419,3.164,3.164S17.744,7.327,16,7.327s-3.164-1.419-3.164-3.164S14.256,1,16,1     M16,0c-2.3,0-4.164,1.864-4.164,4.164c0,2.3,1.864,4.164,4.164,4.164s4.164-1.864,4.164-4.164C20.164,1.864,18.3,0,16,0L16,0z"></path></g><g display="inline"><circle  cx="27.531" cy="4.164" r="3.664"></circle><g><path  d="M27.531,1c1.744,0,3.164,1.419,3.164,3.164s-1.419,3.164-3.164,3.164s-3.164-1.419-3.164-3.164     S25.786,1,27.531,1 M27.531,0c-2.3,0-4.164,1.864-4.164,4.164c0,2.3,1.864,4.164,4.164,4.164c2.3,0,4.164-1.864,4.164-4.164     C31.694,1.864,29.83,0,27.531,0L27.531,0z"></path></g></g><g display="inline"><circle  cx="4.469" cy="16" r="3.664"></circle><path  d="M4.469,12.836c1.744,0,3.164,1.419,3.164,3.164s-1.419,3.164-3.164,3.164S1.306,17.744,1.306,16    S2.725,12.836,4.469,12.836 M4.469,11.836c-2.3,0-4.164,1.864-4.164,4.164c0,2.3,1.864,4.164,4.164,4.164    c2.3,0,4.164-1.864,4.164-4.164C8.633,13.7,6.769,11.836,4.469,11.836L4.469,11.836z"></path></g><g display="inline"><circle  cx="16" cy="16" r="3.664"></circle><g><path  d="M16,12.836c1.744,0,3.164,1.419,3.164,3.164S17.744,19.164,16,19.164S12.836,17.744,12.836,16     S14.256,12.836,16,12.836 M16,11.836c-2.3,0-4.164,1.864-4.164,4.164c0,2.3,1.864,4.164,4.164,4.164S20.164,18.3,20.164,16     C20.164,13.7,18.3,11.836,16,11.836L16,11.836z"></path></g></g><g display="inline"><circle  cx="27.531" cy="16" r="3.664"></circle><path  d="M27.531,12.836c1.744,0,3.164,1.419,3.164,3.164s-1.419,3.164-3.164,3.164S24.367,17.744,24.367,16    S25.786,12.836,27.531,12.836 M27.531,11.836c-2.3,0-4.164,1.864-4.164,4.164c0,2.3,1.864,4.164,4.164,4.164    c2.3,0,4.164-1.864,4.164-4.164C31.694,13.7,29.83,11.836,27.531,11.836L27.531,11.836z"></path></g><g display="inline"><circle  cx="4.469" cy="27.836" r="3.664"></circle><g><path  d="M4.469,24.673c1.744,0,3.164,1.419,3.164,3.164S6.214,31,4.469,31s-3.164-1.419-3.164-3.164     S2.725,24.673,4.469,24.673 M4.469,23.673c-2.3,0-4.164,1.864-4.164,4.164c0,2.3,1.864,4.164,4.164,4.164     c2.3,0,4.164-1.864,4.164-4.164C8.633,25.537,6.769,23.673,4.469,23.673L4.469,23.673z"></path></g></g><g display="inline"><circle  cx="16" cy="27.836" r="3.664"></circle><path  d="M16,24.673c1.744,0,3.164,1.419,3.164,3.164S17.744,31,16,31s-3.164-1.419-3.164-3.164    S14.256,24.673,16,24.673 M16,23.673c-2.3,0-4.164,1.864-4.164,4.164C11.836,30.136,13.7,32,16,32s4.164-1.864,4.164-4.164    C20.164,25.537,18.3,23.673,16,23.673L16,23.673z"></path></g><g display="inline"><circle  cx="27.531" cy="27.836" r="3.664"></circle><g><path  d="M27.531,24.673c1.744,0,3.164,1.419,3.164,3.164S29.275,31,27.531,31s-3.164-1.419-3.164-3.164     S25.786,24.673,27.531,24.673 M27.531,23.673c-2.3,0-4.164,1.864-4.164,4.164c0,2.3,1.864,4.164,4.164,4.164     c2.3,0,4.164-1.864,4.164-4.164C31.694,25.537,29.83,23.673,27.531,23.673L27.531,23.673z"></path></g></g></g></svg>